<svg width="269px" height="308px" viewBox="0 0 269 308" version="1.1" xmlns="http://www.w3.org/2000/svg" xmlns:xlink="http://www.w3.org/1999/xlink">
    <g id="Welcome" stroke="none" stroke-width="1" fill="none" fill-rule="evenodd">
        <g id="Desktop-HD" transform="translate(-593.000000, -1737.000000)" fill="#B10017" fill-rule="nonzero">
            <g id="noun_Creative-and-idea_1903684" transform="translate(593.000000, 1737.000000)">
                <path d="M250.590257,250 C247.050255,250 244.180516,247.130269 244.180516,243.590277 L244.180516,121.805548 C244.185842,81.6583637 222.114586,44.7604428 186.739022,25.7769506 C151.363457,6.79345843 108.414901,8.79997567 74.9633568,30.9990073 C73.0558036,32.2676526 70.6163356,32.4222645 68.5638769,31.4046022 C66.5114181,30.38694 65.1577859,28.3516107 65.0128804,26.0653033 C64.8679749,23.7789958 65.9538107,21.5890547 67.8613639,20.3204094 C105.248169,-4.49733565 153.253771,-6.74449751 192.79548,14.4721924 C232.337188,35.6888822 257.007604,76.9314386 257,121.805548 L257,243.590277 C257,247.130269 254.130259,250 250.590257,250 Z" id="Path"></path>
                <path d="M102.6,263 C99.0653776,263 96.2,260.132202 96.2,256.594595 L96.2,237.493676 C46.6494459,220.803247 13.2023159,174.406371 13,122.081081 L13,32.4054052 C13,28.8677976 15.8653777,26 19.4,26 C22.9346223,26 25.7999999,28.8677976 25.8,32.4054052 L25.8,122.081081 C25.9794323,170.493445 57.9468256,213.024071 104.3728,226.617297 C107.113354,227.408013 109,229.918324 109,232.772892 L109,256.594595 C109,260.132202 106.134622,263 102.6,263 Z" id="Path"></path>
                <path d="M166.405194,263 C162.867703,263 160,260.127251 160,256.583535 L160,232.7207 C160,229.861204 161.888178,227.346558 164.630956,226.554477 C186.794666,220.065623 206.3536,206.745198 220.529087,188.485588 C222.697569,185.684281 226.722391,185.174368 229.518778,187.346666 C232.315165,189.518964 232.824182,193.550867 230.6557,196.352175 C215.82215,215.444298 195.703034,229.73613 172.810389,237.443219 L172.810389,256.583535 C172.810389,260.127251 169.942686,263 166.405194,263 Z" id="Path"></path>
                <path d="M153.75,308 L115.25,308 C111.706173,308 108.833333,305.114724 108.833333,301.555556 L108.833333,288.666667 C101.745679,288.666667 96,282.896115 96,275.777778 L96,256.444444 C96,252.885276 98.8728395,250 102.416667,250 L166.583333,250 C170.12716,250 173,252.885276 173,256.444444 L173,275.777778 C173,282.896115 167.254321,288.666667 160.166667,288.666667 L160.166667,301.555556 C160.166667,305.114724 157.293827,308 153.75,308 Z M121.666667,295.111111 L147.333333,295.111111 L147.333333,282.222222 C147.333333,278.663054 150.206173,275.777778 153.75,275.777778 L160.166667,275.777778 L160.166667,262.888889 L108.833333,262.888889 L108.833333,275.777778 L115.25,275.777778 C118.793827,275.777778 121.666667,278.663054 121.666667,282.222222 L121.666667,295.111111 Z" id="Shape"></path>
                <path d="M262.666667,276 L237.333333,276 C233.83553,276 231,273.16447 231,269.666667 L231,244.333333 C231,240.83553 233.83553,238 237.333333,238 L262.666667,238 C266.16447,238 269,240.83553 269,244.333333 L269,269.666667 C269,273.16447 266.16447,276 262.666667,276 Z M243.666667,263.333333 L256.333333,263.333333 L256.333333,250.666667 L243.666667,250.666667 L243.666667,263.333333 Z" id="Shape"></path>
                <path d="M31.6666667,39 L6.33333333,39 C2.83552992,39 0,36.1644701 0,32.6666667 L0,7.33333333 C0,3.83552992 2.83552992,1 6.33333333,1 L31.6666667,1 C35.1644701,1 38,3.83552992 38,7.33333333 L38,32.6666667 C38,36.1644701 35.1644701,39 31.6666667,39 Z M12.6666667,26.3333333 L25.3333333,26.3333333 L25.3333333,13.6666667 L12.6666667,13.6666667 L12.6666667,26.3333333 Z" id="Shape"></path>
                <path d="M135,212 C85.2943725,212 45,171.705627 45,122 C45,72.2943725 85.2943725,32 135,32 C184.705627,32 225,72.2943725 225,122 C224.946853,171.683597 184.683597,211.946853 135,212 Z M135,44.8571429 C92.3951764,44.8571429 57.8571429,79.3951764 57.8571429,122 C57.8571429,164.604824 92.3951764,199.142857 135,199.142857 C177.604824,199.142857 212.142857,164.604824 212.142857,122 C212.096797,79.4142696 177.58573,44.9032026 135,44.8571429 Z" id="Shape"></path>
                <path d="M134.5,174 C106.057335,174 83,150.942665 83,122.5 C83,94.0573354 106.057335,71 134.5,71 C162.942665,71 186,94.0573354 186,122.5 C185.968071,150.929429 162.929429,173.968071 134.5,174 L134.5,174 Z M134.5,83.875 C113.168002,83.875 95.875,101.168002 95.875,122.5 C95.875,143.831998 113.168002,161.125 134.5,161.125 C155.831998,161.125 173.125,143.831998 173.125,122.5 C173.103709,101.176827 155.823173,83.8962913 134.5,83.875 Z" id="Shape"></path>
            </g>
        </g>
    </g>
</svg>
