<svg width="269px" height="269px" viewBox="0 0 269 269" version="1.1" xmlns="http://www.w3.org/2000/svg" xmlns:xlink="http://www.w3.org/1999/xlink">
    <g id="Welcome" stroke="none" stroke-width="1" fill="none" fill-rule="evenodd">
        <g id="Desktop-HD" transform="translate(-533.000000, -2421.000000)" fill="#B10017" fill-rule="nonzero">
            <g id="noun_digital-art_1903688" transform="translate(533.000000, 2421.000000)">
                <path d="M235.394737,169 L33.6052632,169 C30.5095618,169 28,166.313708 28,163 C28,159.686292 30.5095618,157 33.6052632,157 L235.394737,157 C238.490438,157 241,159.686292 241,163 C241,166.313708 238.490438,169 235.394737,169 Z" id="Path"></path>
                <path d="M196.145833,269 C193.050738,269 190.541667,266.490929 190.541667,263.395833 L190.541667,246.583333 L179.333333,246.583333 C176.920138,246.583914 174.777549,245.039625 174.014979,242.750083 L162.806646,209.125083 C162.237396,207.415966 162.52444,205.537397 163.578102,204.07626 C164.631764,202.615122 166.323577,201.749566 168.125,201.75 L246.583333,201.75 C252.773525,201.75 257.791667,196.731858 257.791667,190.541667 L257.791667,22.4166667 C257.791667,16.2264751 252.773525,11.2083333 246.583333,11.2083333 L22.4166667,11.2083333 C16.2264751,11.2083333 11.2083333,16.2264751 11.2083333,22.4166667 L11.2083333,190.541667 C11.2083333,196.731858 16.2264751,201.75 22.4166667,201.75 L100.875,201.75 C102.676423,201.749566 104.368236,202.615122 105.421898,204.07626 C106.47556,205.537397 106.762604,207.415966 106.193354,209.125083 L94.9850208,242.750083 C94.222451,245.039625 92.0798624,246.583914 89.6666667,246.583333 L78.4583333,246.583333 L78.4583333,263.395833 C78.4583333,266.490929 75.9492625,269 72.8541667,269 C69.7590709,269 67.25,266.490929 67.25,263.395833 L67.25,240.979167 C67.25,237.884071 69.7590709,235.375 72.8541667,235.375 L85.6260625,235.375 L93.1020208,212.958333 L22.4166667,212.958333 C10.0362835,212.958333 0,202.92205 0,190.541667 L0,22.4166667 C0,10.0362835 10.0362835,0 22.4166667,0 L246.583333,0 C258.963716,0 269,10.0362835 269,22.4166667 L269,190.541667 C269,202.92205 258.963716,212.958333 246.583333,212.958333 L175.897979,212.958333 L183.373938,235.375 L196.145833,235.375 C199.240929,235.375 201.75,237.884071 201.75,240.979167 L201.75,263.395833 C201.75,266.490929 199.240929,269 196.145833,269 Z" id="Path"></path>
                <path d="M208.357143,269 L61.6428571,269 C58.5263932,269 56,266.313708 56,263 C56,259.686292 58.5263932,257 61.6428571,257 L208.357143,257 C211.473607,257 214,259.686292 214,263 C214,266.313708 211.473607,269 208.357143,269 Z" id="Path"></path>
                <path d="M157.4,247 L112.6,247 C109.507205,247 107,244.313708 107,241 C107,237.686292 109.507205,235 112.6,235 L157.4,235 C160.492795,235 163,237.686292 163,241 C163,244.313708 160.492795,247 157.4,247 Z" id="Path"></path>
                <path d="M168.4,213 L123.6,213 C120.507205,213 118,210.313708 118,207 C118,203.686292 120.507205,201 123.6,201 L168.4,201 C171.492795,201 174,203.686292 174,207 C174,210.313708 171.492795,213 168.4,213 Z" id="Path"></path>
                <path d="M223.833929,134 L67.5089342,134 C66.797862,134 66.0932297,133.863232 65.4320449,133.597667 L37.5168673,122.264333 C35.3933562,121.405732 34,119.320043 34,117 C34,114.679957 35.3933562,112.594268 37.5168673,111.735667 L65.4320449,100.402333 C66.0932297,100.136768 66.797862,100 67.5089342,100 L223.833929,100 C230.00078,100 235,105.074106 235,111.333333 L235,122.666667 C235,128.925894 230.00078,134 223.833929,134 Z M68.580877,122.666667 L223.833929,122.666667 L223.833929,111.333333 L68.580877,111.333333 L54.6232882,117 L68.580877,122.666667 Z" id="Shape"></path>
                <path d="M195,134 C191.686292,134 189,131.462947 189,128.333333 L189,105.666667 C189,102.537053 191.686292,100 195,100 C198.313708,100 201,102.537053 201,105.666667 L201,128.333333 C201,131.462947 198.313708,134 195,134 Z" id="Path"></path>
                <path d="M62.3333333,68 L39.6666667,68 C36.5370531,68 34,65.4629469 34,62.3333333 L34,39.6666667 C34,36.5370531 36.5370531,34 39.6666667,34 L62.3333333,34 C65.4629469,34 68,36.5370531 68,39.6666667 L68,62.3333333 C68,65.4629469 65.4629469,68 62.3333333,68 Z M45.3333333,56.6666667 L56.6666667,56.6666667 L56.6666667,45.3333333 L45.3333333,45.3333333 L45.3333333,56.6666667 Z" id="Shape"></path>
                <path d="M229.333333,68 L206.666667,68 C203.537053,68 201,65.4629469 201,62.3333333 L201,39.6666667 C201,36.5370531 203.537053,34 206.666667,34 L229.333333,34 C232.462947,34 235,36.5370531 235,39.6666667 L235,62.3333333 C235,65.4629469 232.462947,68 229.333333,68 Z M212.333333,56.6666667 L223.666667,56.6666667 L223.666667,45.3333333 L212.333333,45.3333333 L212.333333,56.6666667 Z" id="Shape"></path>
                <path d="M146.333333,68 L123.666667,68 C120.537053,68 118,65.4629469 118,62.3333333 L118,39.6666667 C118,36.5370531 120.537053,34 123.666667,34 L146.333333,34 C149.462947,34 152,36.5370531 152,39.6666667 L152,62.3333333 C152,65.4629469 149.462947,68 146.333333,68 Z M129.333333,56.6666667 L140.666667,56.6666667 L140.666667,45.3333333 L129.333333,45.3333333 L129.333333,56.6666667 Z" id="Shape"></path>
                <path d="M122.461538,56 L61.5384615,56 C58.4796537,56 56,53.3137085 56,50 C56,46.6862915 58.4796537,44 61.5384615,44 L122.461538,44 C125.520346,44 128,46.6862915 128,50 C128,53.3137085 125.520346,56 122.461538,56 Z" id="Path"></path>
                <path d="M207.461538,56 L146.538462,56 C143.479654,56 141,53.3137085 141,50 C141,46.6862915 143.479654,44 146.538462,44 L207.461538,44 C210.520346,44 213,46.6862915 213,50 C213,53.3137085 210.520346,56 207.461538,56 Z" id="Path"></path>
                <path d="M95.6829883,89 C92.5551775,89 90.019586,86.5386302 90.019586,83.5023766 L90.019586,72.5071297 C89.7319549,65.1347737 92.6228759,57.9796597 97.9969663,52.7628794 C103.371057,47.5460991 110.741931,44.7398012 118.336598,45.0190126 C121.464408,45.0190126 124,47.4803825 124,50.5166361 C124,53.5528896 121.464408,56.0142595 118.336598,56.0142595 C113.755272,55.7781312 109.28653,57.4436727 106.045182,60.5953838 C102.803834,63.7470948 101.095513,68.0877956 101.346391,72.5346179 L101.346391,83.5023766 C101.346391,86.5386302 98.810799,89 95.6829883,89 Z" id="Path"></path>
                <path d="M173.317012,89 C170.189201,89 167.653609,86.5386302 167.653609,83.5023766 L167.653609,72.5071297 C167.897963,68.0644692 166.186538,63.7302066 162.945764,60.5842968 C159.70499,57.438387 155.24003,55.7770585 150.663402,56.0142595 C147.535592,56.0142595 145,53.5528896 145,50.5166361 C145,47.4803825 147.535592,45.0190126 150.663402,45.0190126 C158.258069,44.7398012 165.628943,47.5460991 171.003034,52.7628794 C176.377124,57.9796597 179.268045,65.1347737 178.980414,72.5071297 L178.980414,83.5023766 C178.980414,86.5386302 176.444822,89 173.317012,89 Z" id="Path"></path>
            </g>
        </g>
    </g>
</svg>
