<svg width="277px" height="277px" viewBox="0 0 277 277" version="1.1" xmlns="http://www.w3.org/2000/svg" xmlns:xlink="http://www.w3.org/1999/xlink">
    <g id="Welcome" stroke="none" stroke-width="1" fill="none" fill-rule="evenodd">
        <g id="Desktop-HD" transform="translate(-1113.000000, -2413.000000)" fill="#B10017" fill-rule="nonzero">
            <g id="noun_Computer_1903695" transform="translate(1113.000000, 2413.000000)">
                <path d="M242.236842,174 L34.7631579,174 C31.5802537,174 29,171.313708 29,168 C29,164.686292 31.5802537,162 34.7631579,162 L242.236842,162 C245.419746,162 248,164.686292 248,168 C248,171.313708 245.419746,174 242.236842,174 Z" id="Path"></path>
                <path d="M201.979167,277 C198.792023,277 196.208333,274.41631 196.208333,271.229167 L196.208333,253.916667 L184.666667,253.916667 C182.181703,253.917265 179.975394,252.327049 179.190146,249.969417 L167.648479,215.344417 C167.0623,213.584471 167.35788,211.650033 168.442878,210.145442 C169.527876,208.640851 171.270003,207.749553 173.125,207.75 L253.916667,207.75 C260.290953,207.75 265.458333,202.58262 265.458333,196.208333 L265.458333,23.0833333 C265.458333,16.7090468 260.290953,11.5416667 253.916667,11.5416667 L23.0833333,11.5416667 C16.7090468,11.5416667 11.5416667,16.7090468 11.5416667,23.0833333 L11.5416667,196.208333 C11.5416667,202.58262 16.7090468,207.75 23.0833333,207.75 L103.875,207.75 C105.729997,207.749553 107.472124,208.640851 108.557122,210.145442 C109.64212,211.650033 109.9377,213.584471 109.351521,215.344417 L97.8098542,249.969417 C97.0246057,252.327049 94.8182969,253.917265 92.3333333,253.916667 L80.7916667,253.916667 L80.7916667,271.229167 C80.7916667,274.41631 78.2079766,277 75.0208333,277 C71.8336901,277 69.25,274.41631 69.25,271.229167 L69.25,248.145833 C69.25,244.95869 71.8336901,242.375 75.0208333,242.375 L88.1725625,242.375 L95.8708542,219.291667 L23.0833333,219.291667 C10.3347604,219.291667 0,208.956906 0,196.208333 L0,23.0833333 C0,10.3347604 10.3347604,0 23.0833333,0 L253.916667,0 C266.66524,0 277,10.3347604 277,23.0833333 L277,196.208333 C277,208.956906 266.66524,219.291667 253.916667,219.291667 L181.129146,219.291667 L188.827438,242.375 L201.979167,242.375 C205.16631,242.375 207.75,244.95869 207.75,248.145833 L207.75,271.229167 C207.75,274.41631 205.16631,277 201.979167,277 Z" id="Path"></path>
                <path d="M214.214286,277 L63.7857143,277 C60.5903525,277 58,274.313708 58,271 C58,267.686292 60.5903525,265 63.7857143,265 L214.214286,265 C217.409647,265 220,267.686292 220,271 C220,274.313708 217.409647,277 214.214286,277 Z" id="Path"></path>
                <path d="M162.2,255 L115.8,255 C112.596748,255 110,252.313708 110,249 C110,245.686292 112.596748,243 115.8,243 L162.2,243 C165.403252,243 168,245.686292 168,249 C168,252.313708 165.403252,255 162.2,255 Z" id="Path"></path>
                <path d="M173.2,219 L126.8,219 C123.596748,219 121,216.313708 121,213 C121,209.686292 123.596748,207 126.8,207 L173.2,207 C176.403252,207 179,209.686292 179,213 C179,216.313708 176.403252,219 173.2,219 Z" id="Path"></path>
                <path d="M149.235734,150 C147.706798,150 146.240604,149.38486 145.159646,148.290803 L91.5824448,94.0806716 L43.7705722,142.457366 C41.5083789,144.668076 37.9125093,144.63646 35.688627,142.386306 C33.4647448,140.136152 33.4334977,136.497803 35.6183971,134.208886 L87.5063572,81.7079514 C89.7577173,79.4306829 93.4071722,79.4306829 95.6585323,81.7079514 L153.311821,140.042323 C154.960175,141.710652 155.453191,144.219277 154.561041,146.398754 C153.668892,148.578231 151.567209,150 149.235734,150 Z" id="Path"></path>
                <path d="M225.219282,144 C223.685983,144 222.215603,143.396044 221.13156,142.321877 L173.183226,94.8246817 L136.798459,130.867109 C134.529809,133.037628 130.923676,133.006587 128.693447,130.797341 C126.463217,128.588095 126.431881,125.015892 128.623016,122.768588 L169.095504,82.6769004 C171.35329,80.4410332 175.013161,80.4410332 177.270947,82.6769004 L229.307003,134.223356 C230.960061,135.861355 231.454484,138.324372 230.559788,140.464226 C229.665092,142.604079 227.557411,144 225.219282,144 Z" id="Path"></path>
                <path d="M132,75 C119.297451,75 109,64.7025492 109,52 C109,39.2974508 119.297451,29 132,29 C144.702549,29 155,39.2974508 155,52 C155,58.0999793 152.576793,63.9501193 148.263456,68.263456 C143.950119,72.5767927 138.099979,75 132,75 Z M132,40.5 C125.648725,40.5 120.5,45.6487254 120.5,52 C120.5,58.3512746 125.648725,63.5 132,63.5 C138.351275,63.5 143.5,58.3512746 143.5,52 C143.5,45.6487254 138.351275,40.5 132,40.5 Z" id="Shape"></path>
            </g>
        </g>
    </g>
</svg>
